<?xml version="1.0" standalone="no"?>
<!DOCTYPE svg PUBLIC "-//W3C//DTD SVG 20010904//EN"
 "http://www.w3.org/TR/2001/REC-SVG-20010904/DTD/svg10.dtd">
<svg version="1.0" xmlns="http://www.w3.org/2000/svg"
 width="500.000000pt" height="500.000000pt" viewBox="0 0 500.000000 500.000000"
 preserveAspectRatio="xMidYMid meet">
<metadata>
Created by potrace 1.11, written by Peter Selinger 2001-2013
</metadata>
<g transform="translate(0.000000,500.000000) scale(0.100000,-0.100000)"
fill="#000000" stroke="none">
<path d="M3727 3960 c-83 -15 -189 -50 -257 -86 -239 -125 -350 -335 -337
-638 6 -142 32 -239 95 -344 103 -171 228 -277 607 -512 525 -326 649 -482
632 -793 -11 -209 -98 -347 -270 -431 -199 -98 -493 -62 -674 82 -97 77 -195
246 -246 422 -28 97 -57 255 -57 312 l0 38 -50 0 -50 0 0 -373 c0 -206 -3
-422 -7 -480 l-6 -107 46 0 45 0 7 43 c4 23 15 61 25 84 30 69 50 68 210 -15
169 -88 255 -117 390 -133 421 -48 795 120 932 419 50 109 60 177 56 362 -4
150 -7 171 -31 234 -40 103 -93 182 -181 274 -104 108 -244 211 -546 400 -316
199 -391 252 -470 331 -107 108 -160 233 -160 376 0 139 45 249 140 339 98 94
197 130 355 129 174 0 304 -50 410 -157 116 -116 199 -297 232 -505 l17 -111
42 0 41 0 7 333 c3 182 9 367 13 410 l6 77 -45 0 -45 0 -12 -59 c-6 -33 -21
-71 -33 -86 -32 -41 -86 -31 -192 34 -98 60 -178 98 -249 118 -62 17 -320 26
-390 13z"/>
<path d="M180 3891 c0 -44 -7 -41 115 -57 104 -13 156 -49 182 -128 16 -46 18
-147 21 -1126 2 -692 -1 -1111 -7 -1177 -18 -176 -55 -215 -222 -236 l-89 -11
0 -36 0 -35 1040 0 c919 0 1039 2 1035 15 -12 44 -27 413 -23 584 l4 196 -42
0 -43 0 -6 -57 c-12 -104 -45 -258 -69 -330 -56 -163 -147 -249 -312 -295 -70
-19 -111 -22 -366 -26 -405 -6 -459 6 -504 110 -18 40 -19 83 -22 616 l-3 574
188 -4 c178 -3 191 -4 243 -29 136 -64 182 -151 210 -396 l12 -103 45 0 44 0
-8 163 c-4 89 -8 345 -8 570 l0 407 -42 0 c-47 0 -43 7 -63 -135 -25 -179 -56
-254 -135 -323 -67 -59 -127 -72 -324 -72 l-162 0 3 568 3 568 25 48 c35 67
72 85 207 98 148 14 549 4 631 -16 162 -40 238 -124 282 -310 16 -67 49 -265
50 -298 0 -5 19 -8 43 -8 l42 0 1 283 c1 155 5 317 11 360 5 43 7 79 4 80 -3
2 -163 -1 -356 -4 -352 -7 -1485 -3 -1582 6 l-53 5 0 -39z"/>
</g>
</svg>
